<!--?xml version="1.0" encoding="utf-8"?-->
<!-- Generator: Adobe Illustrator 18.1.1, SVG Export Plug-In . SVG Version: 6.00 Build 0)  -->

<svg version="1.1" id="_x31_0" xmlns="http://www.w3.org/2000/svg" xmlns:xlink="http://www.w3.org/1999/xlink" x="0px" y="0px" viewBox="0 0 512 512" style="width: 48px; height: 48px; opacity: 1;" xml:space="preserve">
<style type="text/css">
	.st0{fill:#374149;}
</style>
<g>
	<polygon class="st0" points="205.75,295.212 205.843,252.169 205.75,252.239 205.75,252.04 161.218,285.77 161.218,412.962 
		303.27,412.962 303.27,368.431 205.75,368.431 	" style="fill: rgb(58, 171, 210);"></polygon>
	<polygon class="st0" points="205.75,46.477 376.688,46.477 415.95,22.41 449.329,2.11 449.067,2.11 449.329,1.946 161.218,1.946 
		161.218,129.137 205.75,162.868 	" style="fill: rgb(58, 171, 210);"></polygon>
	<path class="st0" d="M495.169,0.137l-0.086,0.05V0l-5.175,3.172L419.27,46.477l-89.379,54.828c-2.707,1.66-4.356,4.61-4.356,7.782
		v259.345v44.531v89.894c0,7.137,7.821,11.512,13.902,7.782l148.926-91.332c4.176-2.559,6.718-7.102,6.718-12V139.387L495.169,0.137
		z M356.371,273.302v-25.824c0-3.118,1.282-5.958,3.34-7.961c2.004-2.059,4.844-3.34,7.961-3.34c6.234,0,11.301,5.066,11.301,11.301
		v25.824c0,6.234-5.066,11.301-11.301,11.301C361.438,284.602,356.371,279.536,356.371,273.302z" style="fill: rgb(58, 171, 210);"></path>
	<path class="st0" d="M205.75,224.153l15.195-11.523c3.395-2.614,3.395-7.734,0-10.351l-15.195-11.524l-44.531-33.73l-29.332-22.211
		c-1.226-0.89-2.562-1.278-3.898-1.278c-3.34,0-6.512,2.614-6.512,6.458v28.778c0,3.562-2.894,6.511-6.457,6.511H23.343
		c-3.622,0-6.512,2.894-6.512,6.458v51.43c0,3.562,2.89,6.515,6.512,6.515h91.676c3.562,0,6.457,2.895,6.457,6.458v28.778
		c0,3.839,3.172,6.511,6.512,6.511c1.336,0,2.672-0.445,3.898-1.336l29.332-22.21L205.75,224.153z" style="fill: rgb(58, 171, 210);"></path>
</g>
</svg>
